<svg xmlns="http://www.w3.org/2000/svg" width="759.012" height="630" viewBox="0 0 759.012 630">
  <g id="Designers" transform="translate(-259.038 -122)">
    <g id="Group" transform="translate(220.05 122)">
      <g id="UI-_-Web-design-_-Web-design-1-_-1" data-name="UI-/-Web-design-/-Web-design-1-/-1" transform="translate(209.839)">
        <g id="Web-design" transform="translate(0)">
          <rect id="Background" width="375.338" height="551.258" rx="20" fill="#f2f6fb"/>
          <ellipse id="Burron" cx="6.234" cy="5.578" rx="6.234" ry="5.578" transform="translate(17.061 15.109)" fill="#ff5645"/>
          <ellipse id="Burron-2" data-name="Burron" cx="5.906" cy="5.578" rx="5.906" ry="5.578" transform="translate(38.059 15.109)" fill="#ffcb3d"/>
          <circle id="Burron-3" data-name="Burron" cx="5.578" cy="5.578" r="5.578" transform="translate(58.4 15.109)" fill="#3abf7c"/>
          <path id="Combined-Shape" d="M170.143,23.026h58.4a1.967,1.967,0,0,1,1.969,1.966V32.2a1.967,1.967,0,0,1-1.969,1.966h-58.4a1.967,1.967,0,0,1-1.969-1.966v-7.21A1.967,1.967,0,0,1,170.143,23.026Zm166.671,0h31.5a1.967,1.967,0,0,1,1.969,1.966V32.2a1.967,1.967,0,0,1-1.969,1.966h-31.5a1.967,1.967,0,0,1-1.969-1.966v-7.21A1.967,1.967,0,0,1,336.814,23.026Zm-43.308,0h30.841a1.967,1.967,0,0,1,1.969,1.966V32.2a1.967,1.967,0,0,1-1.969,1.966H293.505a1.967,1.967,0,0,1-1.969-1.966v-7.21A1.967,1.967,0,0,1,293.505,23.026ZM127.491,197.565H271.851a1.311,1.311,0,0,1,1.312,1.311v11.158a1.312,1.312,0,0,1-1.312,1.311H127.491a1.312,1.312,0,0,1-1.312-1.311V198.876A1.311,1.311,0,0,1,127.491,197.565Zm-26.247-22.31H296.786a1.312,1.312,0,0,1,1.312,1.311v11.158a1.311,1.311,0,0,1-1.312,1.311H101.243a1.311,1.311,0,0,1-1.312-1.311V176.566A1.312,1.312,0,0,1,101.243,175.256ZM34.312,247.814a2.625,2.625,0,0,1,2.626-2.618H362.4a2.622,2.622,0,0,1,2.626,2.618V460.424a2.625,2.625,0,0,1-2.626,2.618H36.938a2.622,2.622,0,0,1-2.626-2.618Zm2.052,232.022h150.1a3.816,3.816,0,0,1,2.022.35,2.385,2.385,0,0,1,.992.991,3.8,3.8,0,0,1,.35,2.02v44.459a3.8,3.8,0,0,1-.35,2.019,2.382,2.382,0,0,1-.992.991,3.807,3.807,0,0,1-2.022.351H36.365a3.806,3.806,0,0,1-2.022-.351,2.381,2.381,0,0,1-.992-.991A3.8,3.8,0,0,1,33,527.656V483.2a3.8,3.8,0,0,1,.351-2.02,2.384,2.384,0,0,1,.992-.991A3.814,3.814,0,0,1,36.365,479.836Zm175.2,0h150.1a3.815,3.815,0,0,1,2.022.35,2.385,2.385,0,0,1,.992.991,3.8,3.8,0,0,1,.35,2.02v44.459a3.8,3.8,0,0,1-.35,2.019,2.382,2.382,0,0,1-.992.991,3.807,3.807,0,0,1-2.022.351h-150.1a3.807,3.807,0,0,1-2.022-.351,2.382,2.382,0,0,1-.992-.991,3.8,3.8,0,0,1-.35-2.019V483.2a3.8,3.8,0,0,1,.35-2.02,2.385,2.385,0,0,1,.992-.991A3.815,3.815,0,0,1,211.566,479.836Z" transform="translate(-11.346 -7.917)" fill="#e1e5f0"/>
          <ellipse id="Oval-2" cx="17.348" cy="17.419" rx="17.348" ry="17.419" transform="translate(226.065 275.936)" fill="#f2f6fb"/>
          <path id="Object" d="M233.378,184.439v-2.625a41.06,41.06,0,0,0,10.693-1.408l.682,2.534A43.682,43.682,0,0,1,233.378,184.439Zm21.965-5.923-1.323-2.267a41.193,41.193,0,0,0,8.523-6.613l1.866,1.845A43.781,43.781,0,0,1,255.343,178.516Zm16-16.183-2.282-1.3a40.731,40.731,0,0,0,4.043-10l2.542.653A43.388,43.388,0,0,1,271.341,162.333Zm5.669-22.092-2.625.033a41.029,41.029,0,0,0-1.545-10.674l2.525-.715A43.631,43.631,0,0,1,277.011,140.241ZM270.8,118.349l-2.249,1.352a41.215,41.215,0,0,0-6.723-8.437l1.821-1.89A43.845,43.845,0,0,1,270.8,118.349Zm-16.386-15.785-1.267,2.3A40.733,40.733,0,0,0,243.1,100.95l.619-2.551A43.337,43.337,0,0,1,254.415,102.564ZM232.254,97.18l.066,2.624a40.973,40.973,0,0,0-10.654,1.683l-.749-2.516A43.584,43.584,0,0,1,232.254,97.18Zm-21.812,6.492,1.382,2.232a41.219,41.219,0,0,0-8.35,6.832l-1.913-1.8A43.826,43.826,0,0,1,210.443,103.672Zm-15.574,16.589,2.315,1.238a40.729,40.729,0,0,0-3.781,10.1l-2.558-.587A43.357,43.357,0,0,1,194.869,120.261Zm-5.1,22.23,2.623-.1a40.908,40.908,0,0,0,1.821,10.632l-2.506.781A43.534,43.534,0,0,1,189.774,142.491Zm6.774,21.723,2.213-1.41a41.226,41.226,0,0,0,6.938,8.261L203.927,173A43.835,43.835,0,0,1,196.547,164.214Zm16.786,15.359,1.207-2.331a40.7,40.7,0,0,0,10.147,3.65l-.553,2.566A43.339,43.339,0,0,1,213.333,179.573Zm47.516,270.414-22.768.1.064-.1H138.7c-6.16,0-8.5-4.234-5.238-9.456L201.421,331.9c3.267-5.223,8.675-5.3,12.082-.156L264,408.575l17.864-28.614c2.879-4.613,7.656-4.685,10.673-.158l41.357,62.09c3.015,4.526,1.08,7.8-4.366,7.631l-30.243.287-9.549.043.079.131H260.849Z" transform="translate(-45.381 -33.412)" fill="#3c41ff"/>
          <path id="Rectangle-2" d="M0,0H151.111c6.16,0,8.5,4.234,5.238,9.456L88.393,118.084c-3.267,5.223-8.675,5.3-12.082.156L17.546,28.83" transform="translate(244.163 416.316) rotate(180)" fill="#444" opacity="0.177"/>
        </g>
      </g>
      <g id="Characters-standing-_-Man-standing-_-1" data-name="Characters-standing-/-Man-standing-/-1" transform="translate(471.823 33.684)">
        <g id="Man" transform="translate(0 0)">
          <g id="Legs" transform="translate(58.781 184.161)">
            <path id="Base" d="M264.442,625.5H197.184a2.8,2.8,0,0,1-2.953-2.5v-.908a2.76,2.76,0,0,1,2.953-2.5h67.259a2.8,2.8,0,0,1,2.953,2.5V623A2.76,2.76,0,0,1,264.442,625.5Zm-154.532-5.906a2.953,2.953,0,0,1,0,5.906H2.953a2.953,2.953,0,0,1,0-5.906Z" transform="translate(0 -213.344)" fill="#de3190"/>
            <path id="Shoes" d="M266.54,598.025a3.258,3.258,0,0,0-.358-.02H199.149l5.3-33.474,46.983-6.365Zm-154.5.006a2.974,2.974,0,0,0-.391-.026H5.157a6.736,6.736,0,0,1-.1-1.4,13.664,13.664,0,0,1,.223-1.506c.842-3.135,1.863-5.217,4.849-7.068a83.014,83.014,0,0,1,9.209-4.959c11.712-5.5,15.714-5.435,23.415-10.485a62.4,62.4,0,0,0,8.854-7.2,109.82,109.82,0,0,1,11.176-8.588l50.59,1.133Z" transform="translate(-1.739 -191.756)" fill="#474961"/>
            <path id="Path_5" data-name="Path 5" d="M157.589.717c4.478,9.971,16.4,40.808,25.236,102.771q1.088,7.71,2.08,15l.1-.106q19.881,94.641,27.543,132.5c5.246,25.919-3.867,25.042,0,46.819,2.229,12.555,11.353,23.036,10.593,35.948q-.18,3.059-.493,12.246a21.654,21.654,0,0,1-19.754,20.833l-44.042,3.853A21.653,21.653,0,0,1,135.39,350.9c-.01-.11-.018-.22-.026-.329q-1.028-14.243-.91-16.919c.162-3.7.292-7.062.381-10.13-1.978-10.441-4.041-21.307-5.7-30.067a68.07,68.07,0,0,1-7.78-20.8q-2.1-9.855-7.893-76.271-.131-.894-.39-5.487l-6.967-32.22q-.833,5.538-1.688,11.193-3,79.032-4.709,88.725c-3.595,20.338-11.433,25.578-11.99,32-.547,6.29-.07,15.522,1.027,29.419q.211,2.67-.319,16.941c0,.11-.009.22-.014.33A21.664,21.664,0,0,1,72.5,357.039c-5.68,4.651-14.212.438-37.141-.606,0,0-3.529-.154-8.171-.678l-5.681-.3a21.591,21.591,0,0,1-9.308-2.651c-2.67-.9-4.859-2.016-6.039-3.394a12.279,12.279,0,0,1-1.575-2.493,12.184,12.184,0,0,1-.589-2.068,21.584,21.584,0,0,1-2.958-9.525Q.4,326.155.114,323.1c-1.21-12.878,7.543-23.671,9.332-36.3,3.1-21.9-5.972-20.7-1.634-46.79q6.276-37.745,20.816-86.807C35.965,101.281,45.093,42.98,52.8,23.631,52.928,23.286,57.821,9.541,64.355,0q.261.311.542.6a9.675,9.675,0,0,0,2.166,1.717,11.232,11.232,0,0,0,2.675,1.341.185.185,0,0,1,.121.07s39.649,12.153,80.11,2.8l.125-.061a11.224,11.224,0,0,0,2.761-1.151,14.544,14.544,0,0,0,2.281-1.562A12.455,12.455,0,0,0,157.589.717Z" transform="translate(24.096 11.681) rotate(-3)" fill="#a339ff"/>
            <path id="Shadow-Legs" d="M72.737,4.521,89.66,82.963l16.414,75.917q-.817,5.437-1.658,10.986-3,79.032-4.709,88.725c-3.594,20.338-11.432,25.578-11.99,32-.546,6.29-.07,15.521,1.028,29.418q.211,2.67-.319,16.941c0,.11-.009.22-.015.331A21.663,21.663,0,0,1,72.5,357.039c-5.681,4.651-14.212.439-37.142-.606,0,0-3.528-.154-8.171-.678l-5.681-.3a21.579,21.579,0,0,1-9.308-2.651c-2.67-.9-4.859-2.016-6.039-3.394a12.278,12.278,0,0,1-1.575-2.493,12.178,12.178,0,0,1-.589-2.068,21.582,21.582,0,0,1-2.958-9.525Q.4,326.155.114,323.1c-1.21-12.878,7.543-23.67,9.332-36.3,3.1-21.9-5.972-20.7-1.634-46.79q6.276-37.745,20.815-86.807C35.965,101.281,45.094,42.98,52.8,23.631c.13-.346,5.024-14.09,11.557-23.631q.26.311.541.6a9.663,9.663,0,0,0,2.167,1.717,11.22,11.22,0,0,0,2.674,1.341.187.187,0,0,1,.121.07S70.871,4.038,72.737,4.521Z" transform="translate(24.096 11.681) rotate(-3)" fill="#444" opacity="0.177"/>
          </g>
          <g id="Body" transform="translate(0 0)">
            <path id="T-shirt" d="M305.412,140.724q.113,1.131.222,2.337l0,.2.18,3.213c1.056,35.749,1.584,51.819,1.879,58.114a11.658,11.658,0,0,0,.029,1.64c.174,2.885.443,14.759-5.027,20.1a14.59,14.59,0,0,1-2.2,1.679,11.2,11.2,0,0,1-2.7,1.294l-.123.068c-39.916,11.46-80.146,1.4-80.146,1.4a11.7,11.7,0,0,1-2.585-.986,13.752,13.752,0,0,1-2.765-1.863c-5.591-5.152-5.505-17.044-5.433-19.933-.016-.919-.028-1.64-.028-1.64.07-6,.045-20.587-.119-52.223q-23.507-2.18-19.034-13.561c6.775-17.235,11.263-33.773,38.124-35.684a50.65,50.65,0,0,1,18.8-4.721,55.683,55.683,0,0,1,5.933-.1c.371-.007.866.051,1.794.1s1.98.1,3.155.142q1.759-.129,3.148-.252c.926-.081,1.358-.155,1.79-.162a55.789,55.789,0,0,1,5.932-.1c.694.022,1.429.056,2.2.108q.582-.134,1.182-.263c27.609-5.959,36.338,9.126,47.547,24.3Q323.9,133.026,305.412,140.724Z" transform="translate(-64.428 -34.193)" fill="#de3190"/>
            <path id="Shadow-T-shirt" d="M225.415,108.327a29.723,29.723,0,0,0-10.317,8.318,27.03,27.03,0,0,0-4.129,7.816c-.176.528-.354.99-.53,1.518-.413,1.123-1.3,3.5-2.058,6.074-.814,2.9-1.46,8.426-1.882,16.112l0,.2-.068,3.217q.017,3.038.031,5.89-22.929-2.259-18.505-13.511C194.681,126.869,199.149,110.464,225.415,108.327Z" transform="translate(-64.561 -37.643)" fill="#444" opacity="0.177"/>
            <path id="Skin" d="M239.386,268.828a9.174,9.174,0,0,1-.871.614c-8.614-1.446,3.7-33.35,7.374-42.38l-30.919-110.6q28.791-6.087,37.984-13.27,25,100.613,27.022,129.062a14.189,14.189,0,0,1,.188,1.934q.538,16.556-11,50.673c-.061.133-20.072,9.958-34.15,1.652ZM155.184,9.889q.042-.055.083-.111c5.759-6.455,16.362-6.264,21.136-5.234.581.127,2.642.608,5.623,1.119,1.618.3,2.923.439,3.7.587,9.682,1.414,13.656.644,18.276,3.768a14.756,14.756,0,0,1,4.417,4.423c4.477,7,2.359,15.225,1.772,17.671-1.957,7.316-6.744,11.431-8.248,13.187a43.123,43.123,0,0,1-4.184,4.148l1.463,21.178a1.216,1.216,0,0,1-.552,1.136,23.08,23.08,0,0,1-7.047,3.135,25.1,25.1,0,0,1-12.739-.014,1.261,1.261,0,0,1-.959-1.148l-.792-13.888q-.862.225-1.841.468c-5.766,1.505-5.419,1.344-5.824,1.433a24.893,24.893,0,0,1-8.37-.088c-2.329-.443-4.6-2.661-6.472-6.223-2.535-4.753-4.484-11.952-5.049-20.391a21.643,21.643,0,0,1-.021-3.565l.967-11.709a14.853,14.853,0,0,1,2.623-7.378,11.329,11.329,0,0,1,1.971-2.432ZM126.135,114.572q3.13,5.652,18.979,7.122c.114,22.132.161,35.919.155,44.26-15.758,19.407-26.3,16.379-26.3,16.379a26.847,26.847,0,0,1-15.078-4.3C85.4,166.882,50.311,104.837,44.258,93.968a81.434,81.434,0,0,1-22.378-6.3Q5.306,80.243,8.523,73.577L65.15,77.234l.155-.108,49.111,51.686A130.861,130.861,0,0,0,126.135,114.572Z" transform="translate(-2.934 -1.774)" fill="#f2a98a"/>
            <path id="Shadow-Skin" d="M34.783,21.8Q40.264,18.375,40.9,2.471C63,1.2,76.764.43,85.094,0c20.205,14.721,17.733,25.408,17.733,25.408a26.855,26.855,0,0,1-3.509,15.283C89.153,59.735,29.029,98.027,18.492,104.64a81.45,81.45,0,0,1-5.118,22.676Q6.825,144.257,0,141.393L.687,84.652.572,84.5,49.617,32.754A130.687,130.687,0,0,0,34.783,21.8Z" transform="translate(147 79.203) rotate(93)" fill="#8c2a00" opacity="0.2"/>
            <path id="Shadow" d="M0,2.745,9.769,0,1.444,11.8Z" transform="translate(173.04 55.555) rotate(-2)" fill="#482d1f"/>
            <path id="Hair" d="M52.715,26.425a8.7,8.7,0,0,0-1.6-4.582c-2.1-2.953-6.037-4.593-9.187-3.543a7.763,7.763,0,0,0-3.084,2.1,11.156,11.156,0,0,0-2.165,4.593L36.52,26.55C12.193,20.086,6.475,9.3,5.181,8.719c.328-.459.656-.853.853-1.181C11.153.517,21.914-.4,26.836.123c.656.066,2.756.328,5.84.525,1.706.131,3.018.131,3.806.2,9.974.394,13.911-.787,18.9,1.837A14.8,14.8,0,0,1,60.3,6.619a19.988,19.988,0,0,1,3.675,17.389,6.926,6.926,0,0,1-1.312,2.3C59.153,26.15,55.906,26.259,52.715,26.425ZM.688,26.512a.86.86,0,0,1-.469-1.421,4.523,4.523,0,0,1,2.894-1.2C5.8,23.747,8.775,25.365,5.8,26.31A12.057,12.057,0,0,1,.688,26.512Zm13.523-.249a.826.826,0,0,1-.4-1.424,4.578,4.578,0,0,1,2.959-1.206c2.686-.141,5.666,1.543,2.689,2.422A11.6,11.6,0,0,1,14.211,26.263Z" transform="translate(147.04 0) rotate(6)" fill="#482d1f"/>
            <path id="Eyes" d="M2.849,2.11c-.007,1.117-.108,2.963-.728,3.652C1.058,6.8-.555,3.6.19,1.527.473.658.925.5,1.453.541A1.628,1.628,0,0,1,2.849,2.11Zm11.723-.746c.124,1.111.22,2.945-.394,3.766C13.254,6.3,11.254,3.247,11.8,1.116,12.017.25,12.465.029,12.989,0A1.562,1.562,0,0,1,14.572,1.365Z" transform="translate(147.211 28.897) rotate(6)" fill="#482d1f"/>
            <path id="Mouth" d="M4.265,1.906C4.725,1.775,5.84,1.446,6.037.725c0-.131.066-.328,0-.459-.262-.459-1.05-.2-2.231-.131A23.967,23.967,0,0,1,0,.068,8.536,8.536,0,0,0,.787,1.775C1.444,2.759,3.543,2.1,4.265,1.906Z" transform="translate(151.323 42.803) rotate(3)" fill="#482d1f"/>
            <path id="Nose" d="M1,4.528,1,4.437,1,4.482Zm-.978,6.93a1.441,1.441,0,0,0,1.2,1.591l.27.023c1.107.085,1.8.117,2.988.117a.656.656,0,0,0,0-1.312c-1.151,0-1.811-.03-2.887-.113l-.212-.016a.458.458,0,0,1-.06-.091L2.3,4.619l.007-.091V.656A.656.656,0,0,0,1,.656V4.482Z" transform="translate(150.961 26.951) rotate(3)" fill="#482d1f"/>
            <path id="Shadow-2" data-name="Shadow" d="M5.782.758a9.508,9.508,0,0,1-.918,5.7A8.643,8.643,0,0,1,.381,10.625a.656.656,0,1,0,.55,1.192,11.015,11.015,0,0,0,2.3-1.373,9.789,9.789,0,0,0,2.8-3.391A10.811,10.811,0,0,0,7.079.555a.656.656,0,0,0-1.3.2Z" transform="translate(190.989 29.419) rotate(6)" fill="#482d1f"/>
            <path id="Fingers" d="M373.646,400.692a.984.984,0,1,1,1.932.377c-.653,3.351-1.243,5.939-2.622,11.688-1.373,5.723-1.959,8.292-2.605,11.606a.984.984,0,1,1-1.932-.377c.653-3.351,1.243-5.939,2.622-11.688C372.413,406.575,373,404.006,373.646,400.692Zm13.309-2.888a.985.985,0,0,1,1.906.5c-.938,3.6-1.6,6.414-3.029,12.683-1.433,6.289-2.1,9.112-3.043,12.742a.984.984,0,0,1-1.9-.5c.937-3.6,1.6-6.414,3.029-12.683C385.344,404.257,386.011,401.434,386.954,397.8Z" transform="translate(-126.845 -136.917)" fill="#482d1f"/>
          </g>
        </g>
      </g>
      <g id="UI-_-Icons-_-User" data-name="UI-/-Icons-/-User" transform="translate(468.341 35.605)">
        <g id="Group-9" transform="translate(0 0)">
          <g id="Group-11">
            <ellipse id="Oval" cx="41.996" cy="42.324" rx="41.996" ry="42.324" fill="#474bff"/>
            <path id="Color" d="M56.206,54.571a8.286,8.286,0,1,1,8.39-8.286A8.338,8.338,0,0,1,56.206,54.571Zm0,4.143A15.113,15.113,0,0,1,71.412,73.732H41A15.113,15.113,0,0,1,56.206,58.714Z" transform="translate(-14.096 -13.236)" fill="#f2f6fb"/>
          </g>
        </g>
      </g>
      <g id="Interior-_-Chair-_-Chair-1" data-name="Interior-/-Chair-/-Chair-1" transform="translate(255.533 629.536) rotate(180)">
        <g id="Chair-" transform="translate(0 0)">
          <path id="Combined-Shape-2" data-name="Combined-Shape" d="M193.031,145.463v-.123a2.97,2.97,0,0,0-2.953-2.887H140.536l17.455-32.022q18.7-34.253,37.271-68.44L215.8,4.326A2.88,2.88,0,0,0,214.554.52l-.262-.131a2.78,2.78,0,0,0-3.806.919L133.646,142.453H82.464L5.625,1.308A2.84,2.84,0,0,0,1.819.389L1.556.52A2.88,2.88,0,0,0,.31,4.326L20.848,41.991q18.7,34.253,37.271,68.44l17.456,32.022H9.89a2.927,2.927,0,0,0-2.953,2.887v.328a2.97,2.97,0,0,0,2.953,2.887H187.238l5.531,44.752q5.709,45.67,11.352,91.472l6.234,50.4a3.13,3.13,0,0,0,3.347,2.887l.328-.066a3.1,3.1,0,0,0,2.493-3.478L193.1,145.8C193.08,145.685,193.058,145.572,193.031,145.463Z" fill="#d8deed"/>
        </g>
      </g>
      <g id="Characters-sitting-_-Woman-sitting_-8" data-name="Characters-sitting-/-Woman-sitting/-8" transform="translate(0 114.085)">
        <g id="Woman" transform="translate(0 0)">
          <g id="Legs-2" data-name="Legs" transform="translate(67.072 271.492)">
            <path id="Shoes-2" data-name="Shoes" d="M157.974,320.186a2.948,2.948,0,0,0-1.327-.318H121.164L56.047,271.356l24.674-34.565,39.5,28.675c2.165,7.349,4.4,14.7,6.627,22.113,1.181,3.871,2.362,7.677,3.543,11.483,3.675,1.444,6.824,2.756,9.055,3.74a74.549,74.549,0,0,1,11.811,6.1,18.815,18.815,0,0,1,5.315,5.118,13.46,13.46,0,0,1,1.444,3.281,13.641,13.641,0,0,1,.2,1.509A6.678,6.678,0,0,1,157.974,320.186Zm122.9-.11a2.984,2.984,0,0,0-.672-.077H174.561a2.994,2.994,0,0,0-.578.056l-1.026-40.907,49.613-.144q9.095,5.944,11.832,8.587a62.356,62.356,0,0,0,8.855,7.2c7.7,5.051,11.7,4.98,23.415,10.486a83.054,83.054,0,0,1,9.209,4.958c2.986,1.851,4.006,3.933,4.849,7.069a13.589,13.589,0,0,1,.223,1.505A7.154,7.154,0,0,1,280.878,320.077Z" transform="translate(-19.87 -81.412)" fill="#474961"/>
            <path id="Base-2" data-name="Base" d="M116.4,342.984q-.1-.062-.191-.132L50.328,293.769a3,3,0,0,1,3.609-4.79l65.176,48.558H154.6a3.018,3.018,0,0,1,0,6.037H118.177A2.947,2.947,0,0,1,116.4,342.984Zm56.11-5.316H278.155a2.953,2.953,0,0,1,0,5.906H172.509a2.953,2.953,0,0,1,0-5.906Z" transform="translate(-17.495 -99.151)" fill="#ff5645"/>
            <path id="Path_6" data-name="Path 6" d="M225.823,71.661c-4.889,25.7-6.89,63.368-2.095,87.08,0,0,4.979,40.749,1.491,41.012-.846.066-9.842.459-10.794.525-23.678,1.575-64.8,4.725-70.93,4.725q-6.131,0-6.131-7.874l-1.334-14.1v-.115q-6.783,8.095-14.083,16.785-10.861,3.224-32.855-9.234T55.045,165.9c-3.871-2.493-13.293-16.284-10.8-19.893l16.47-24.016,9.843-14.37c2.756-4.068,4.837-6.766,7.79-11.031,0-.066.528-.846.528-.911-1.05,0,.147-.853-7.334-.919S23.772,93.844,8.352,71.6C2.2,62.726,1.724,52.9,1.265,48.5Q-1.294,22.845,14.8,6.917q4.311-3.167,6.346-3.757C23.313,2.5,34.73,2.175,36.962,2.044l45.8-.591q32.693-.434,54.592-.739L137.364.6l-.009.114Q181.605.1,181.782.01c.262-.131,28.571,1.05,36.183,5.446C232.543,14,240.211,40.915,225.823,71.661Z" transform="translate(-0.914 0)" fill="#ffcb3d"/>
            <path id="Shadow-Leg" d="M296.415,72.189c-4.87,25.7-6.853,63.269-2.068,86.936,0,0,4.98,40.749,1.491,41.012-.846.066-9.842.459-10.794.525-23.678,1.575-64.8,4.725-70.93,4.725q-6.131,0-6.131-7.874l-1.332-14.073q84.8-101.188,88.765-109.18Q295.933,73.221,296.415,72.189ZM207.957,1.306l.027-.322-.027.322ZM232.74.951H232.7l-.934-.164h.106Z" transform="translate(-71.65 -0.271)" fill="#8c2a00" opacity="0.2"/>
            <path id="Shadow-3" data-name="Shadow" d="M149.289,78.8c-3.238,4.9-6.647,9.655-14.926,20.98-8.306,11.363-11.727,16.136-15,21.082a1.312,1.312,0,1,0,2.189,1.448c3.238-4.9,6.647-9.656,14.926-20.98,8.306-11.363,11.727-16.136,15-21.082a1.312,1.312,0,1,0-2.189-1.447Z" transform="translate(-41.565 -26.891)" fill="#482d1f"/>
          </g>
          <g id="Body-2" data-name="Body" transform="translate(165.125 0) rotate(38)">
            <g id="Brush" transform="translate(176.104 20.463)">
              <path id="Rectangle" d="M5.118,0a5.118,5.118,0,0,1,5.118,5.118q0,.065,0,.13L9.155,47.9a4.038,4.038,0,0,1-8.074,0L0,5.248A5.118,5.118,0,0,1,4.989,0Z" transform="translate(8.515 28.273)" fill="#474961"/>
              <path id="Oval-2-2" data-name="Oval" d="M13.124,36.381A13,13,0,0,0,26.247,23.518c0-3.415-5.758-6.033-10.307-13.035Q14.346,8.03,13.329.568h0a.656.656,0,0,0-1.178-.3Q0,16.683,0,23.518A13,13,0,0,0,13.124,36.381Z" transform="translate(0.284 0.718)" fill="#f2f6fb"/>
              <path id="Paint" d="M13.452,27.071c1.707,0,3.508-4.859,4.892-4.134,4.64,2.432,8.56,7.557,8.56,1.8,0-3.59-5.9-6.342-10.565-13.7Q14.7,8.453,13.656.57h0a.656.656,0,0,0-1.183-.3Q0,17.551,0,24.743c0,4.3,2.754,4.374,6.271,2.329,1.229-.715.96-2.609,2.29-4.134C10.039,21.242,11.79,27.071,13.452,27.071Z" fill="#474bff"/>
            </g>
            <path id="Shirt" d="M77.01,11.579A35.939,35.939,0,0,1,100.6,51.687l-13.7,77.344-75.78,1.358q-6.507-1.168-9.177-5.446c-2.67-4.279-1.942-9.7-1.579-11.79L14.049,36.677a35.987,35.987,0,0,1,41.067-29.4L56.442,1.04A1.312,1.312,0,0,1,58,.029L77.253,4.122a1.312,1.312,0,0,1,1.011,1.556Z" transform="translate(21.582 165.461) rotate(-38)" fill="#ff5645"/>
            <path id="Skin-2" data-name="Skin" d="M134.149,150.71q2.435-20.96,2.59-21.168t-17.768-4.162l-1.159,5.4q-.417-.164-.858-.335a59.032,59.032,0,0,0-5.578-2.165,27.694,27.694,0,0,0-8.334-.984c-5.512.394-11.943,10.433-14.83,24.935a32.723,32.723,0,0,0-.459,3.543l-.525,11.746a14.3,14.3,0,0,0,1.64,7.546,16.4,16.4,0,0,0,1.64,2.625c6.759,9.055,19.226,7.415,21.457,7.152.262,0,.525-.066.787-.066,2.494-.591,4.725-.131,7.087-.066a2.006,2.006,0,0,0,1.969-1.9l.328-16.8c.066-1.575,4.548,2.1,6.32,2.229,3.15.262,6.673-4.591,7.854-7.807a9.192,9.192,0,0,0-1.772-9.318Q134.346,150.9,134.149,150.71ZM92.788,33.8q-2.1.673-4.194,1.354c-10.669,3.473-21.173,7.021-32.572,10.968-3.841,1.291-5.49,1.941-8.248,2.982C38.788,52.525,4.966,65.686,3.336,66.938-2.365,69.264,1,89.48.869,96.842Q15.037,90.9,39.8,81.678a26.771,26.771,0,0,0,7.5-5.635c2.792-.162,25.157-3.652,45.76-6.729l-1.7.259A53.958,53.958,0,0,0,96.251,91.6a36.191,36.191,0,0,1-.119-14.253L97.837,68.6c12.052-1.784,22.885-3.317,27.969-3.805q.408,1.252,6.263,29.495l39.3-10.319q-1.206-8.107-6.008-26.022c-4.8-17.917-6.545-31.264-19.854-35.4-3.1-.967-7.147-.9-16.158,1.117-8.483,1.9-16.368,4-23.956,6.24L111.162.342h.028l-.014-.089L39.189,0q-5.7.077,13.143,8.018a348.125,348.125,0,0,0,38.46,13.616l.173,12.748Q91.876,34.09,92.788,33.8Zm86.8,68.533q-14.313-6.5-27.9-1.94t-14.1,21.271q11.724,3.793,24.785-1.52T179.585,102.333Z" transform="translate(256.064 143.867) rotate(141)" fill="#db9e75"/>
            <path id="Shadow-4" data-name="Shadow" d="M1.111,0,6.495,7.978,0,5Z" transform="translate(85.36 120.26) rotate(141)" fill="#482d1f"/>
            <path id="Eyes-2" data-name="Eyes" d="M11.739,1.488A1.616,1.616,0,0,1,13.213,0c.524-.037,1,.193,1.261,1.1.6,2.062-1.214,5.215-2.148,4.1C11.617,4.457,11.685,2.61,11.739,1.488ZM.059,1.91A1.617,1.617,0,0,1,1.534.426c.524-.037,1,.193,1.261,1.1C3.4,3.584,1.581,6.737.648,5.619-.062,4.878-.059,3.037.059,1.91Z" transform="translate(77.012 87.328) rotate(-38)" fill="#482d1f"/>
            <path id="Mouth-2" data-name="Mouth" d="M4.331.425C4.79.556,5.906.95,6.1,1.672c0,.131.066.328,0,.459-.262.394-1.116.2-2.3.066A20.378,20.378,0,0,0,0,2.2,7.921,7.921,0,0,1,.853.556C1.509-.493,3.609.228,4.331.425Z" transform="matrix(-0.743, 0.669, -0.669, -0.743, 93.046, 93.869)" fill="#482d1f"/>
            <path id="Hair-2" data-name="Hair" d="M.69,18.034a.823.823,0,0,0-.459,1.378,4.733,4.733,0,0,0,2.887,1.247c2.69.131,5.643-1.444,2.756-2.362A10.989,10.989,0,0,0,.69,18.034Zm12.73,0a.788.788,0,0,0-.394,1.378,4.759,4.759,0,0,0,2.953,1.247c2.69.131,5.643-1.509,2.756-2.362A11.537,11.537,0,0,0,13.42,18.034ZM48.7,1.326a12.372,12.372,0,0,0-5.47,7.3,9.464,9.464,0,0,1,4.333,3.066,9.03,9.03,0,0,1,1.226,9.2c-1.348,3.149-4.755,5.467-7.887,5.041A7.109,7.109,0,0,1,37.627,24.5a10.566,10.566,0,0,1-2.884-3.9l-1.164-3.692q-3.542,2.137-14.846,17.046-5.72.286-8.826.333c-3.106.048-6.4-.494-7.68-.081q.158-.323.315-.648c-.249.372-.378.579-.378.579-.076.193.921,1.231.914,1.362,5.9,9.048,17.922,9.087,20.164,8.942a3.158,3.158,0,0,1,.786.041c3.69-.2,6.773-.1,8.874-.061,9.971.325,13.768,1.839,18.944-.387a15.03,15.03,0,0,0,5.183-3.605A16.788,16.788,0,0,0,59.8,36.53q8.54.877,12.75-7.66c3.748-7.6-.665-15.029-6.575-18.353C63.843,3.916,57.1-1.2,51.276.247A7.957,7.957,0,0,0,48.7,1.326Z" transform="matrix(-0.743, 0.669, -0.669, -0.743, 100.034, 87.165)" fill="#482d1f"/>
            <path id="Nose-2" data-name="Nose" d="M.787,8.574l0,.1L.786,8.622ZM0,1.648l0-.073A1.5,1.5,0,0,1,1.2.074c.131-.012.2-.018.278-.022C2.176.007,2.674,0,4.462,0a.656.656,0,1,1,0,1.312c-1.757,0-2.241.007-2.9.049l-.2.014c.015,0-.04.076-.049.173L2.1,8.522l0,.1L1.968,12.49a.656.656,0,0,1-1.312-.045l.13-3.824Z" transform="matrix(-0.743, 0.669, -0.669, -0.743, 91.331, 89.808)" fill="#482d1f"/>
            <path id="Shadow-5" data-name="Shadow" d="M2.606,1.1l-.645,5.25a.984.984,0,0,1-1.953-.24L.652.864a.984.984,0,1,1,1.954.24Z" transform="translate(95.89 152.704) rotate(135)" fill="#482d1f"/>
            <path id="Shadow-Arms" d="M13.365,0A59,59,0,0,1,16.7,8.961a51.871,51.871,0,0,1,1.889,12.981l-6.433,1.051q.876-4.773,1.212-6.837a47.739,47.739,0,0,0,.881-6.685A50.624,50.624,0,0,0,13.365,0ZM5.28,61.836l14.344-4.718.4,12.741q35.135,10.53,49.226,17.515a20.455,20.455,0,0,1,3.525,2.013,5.349,5.349,0,0,1,.455.465c.27.322,0,.652-.854.713q-.853.06-72.375.963Z" transform="translate(113.103 141.468) rotate(-38)" fill="#8c2a00" opacity="0.2"/>
          </g>
        </g>
      </g>
    </g>
  </g>
</svg>
